<?xml version="1.0" encoding="UTF-8"?>
<svg width="32" height="32" viewBox="0 0 32 32" version="1.1" xmlns="http://www.w3.org/2000/svg">
  <style>
    .main-path {
      fill: none;
      stroke: #00ff00;
      stroke-width: 2.5;
      stroke-linecap: square;
      filter: drop-shadow(0 0 2px #00ff00);
    }
    @media (prefers-color-scheme: light) {
      .main-path {
        stroke: #008800;
      }
    }
  </style>
  <path class="main-path" d="
    M 8,4
    C 12,4 12,8 12,8
    L 12,13
    C 12,15 14,16 14,16
    C 14,16 12,17 12,19
    L 12,24
    C 12,24 12,28 8,28
    M 24,4
    C 20,4 20,8 20,8
    L 20,13
    C 20,15 18,16 18,16
    C 18,16 20,17 20,19
    L 20,24
    C 20,24 20,28 24,28
    M 14,16
    L 18,16
  "/>
</svg> 